<?xml version="1.0" standalone="no"?><!DOCTYPE svg PUBLIC "-//W3C//DTD SVG 1.1//EN" "http://www.w3.org/Graphics/SVG/1.1/DTD/svg11.dtd"><svg t="1681140901701" class="icon" viewBox="0 0 1024 1024" version="1.1" xmlns="http://www.w3.org/2000/svg" p-id="7895" data-darkreader-inline-fill="" width="32" height="32" xmlns:xlink="http://www.w3.org/1999/xlink"><path d="M793.4 634.6c-10.1 1.1-20.4 1.7-30.8 1.7-69.5 0-132.9-25.9-181.2-68.5H466c-8.6-19.7-28.6-33.3-51.6-32.4-27.7 1-50.6 23.7-52 51.4-1.5 31.1 23.3 56.8 54 56.8 24.9 0 45.8-16.8 52.1-39.7h100c53.2 42.8 120.7 68.5 194.1 68.5h0.9c-18.8 25.9-42 48.5-68.9 66.9-49.9 34.1-108.9 50.9-169.9 48.2-151.1-6.6-270.4-134.5-266.8-285.8C261 370.3 355.3 261 479.8 234.9c-18 39.7-27.3 82.8-27.3 127.5 0 60.8 17.7 117.6 48.1 165.5l31.6-17.2c-27.6-42.8-43.6-93.6-43.6-148.3 0-53.6 15.5-103.6 42.1-145.8l-14.5-23C347.7 204.7 215.4 348 222 520.7c6.4 168.8 146.9 303.5 315.8 303.2 117.8-0.2 220.4-64.9 274.4-160.7-8.6-13.1-10.2-15.5-18.8-28.6z" fill="#1E88E5" p-id="7896" data-darkreader-inline-fill="" style="--darkreader-inline-fill:#156ab5;"></path></svg>